<mxfile host="app.diagrams.net" agent="Mozilla/5.0 (Windows NT 10.0; Win64; x64) AppleWebKit/537.36 (KHTML, like Gecko) Chrome/128.0.0.0 Safari/537.36" version="24.7.16">
  <diagram name="Сторінка-1" id="lQlykuT76nLz_-_hPbVb">
    <mxGraphModel dx="1951" dy="1015" grid="0" gridSize="10" guides="1" tooltips="1" connect="1" arrows="1" fold="1" page="1" pageScale="1" pageWidth="827" pageHeight="1169" math="0" shadow="0">
      <root>
        <mxCell id="0" />
        <mxCell id="1" parent="0" />
        <mxCell id="YlhcBeEanbGtURB7-T1P-1" value="ESP32" style="rounded=0;whiteSpace=wrap;html=1;fillColor=#d0cee2;strokeColor=#56517e;" parent="1" vertex="1">
          <mxGeometry x="499" y="220" width="250" height="460" as="geometry" />
        </mxCell>
        <mxCell id="YlhcBeEanbGtURB7-T1P-2" value="GPS&amp;nbsp;&lt;br&gt;&amp;nbsp;GY-GPS6MV2&amp;nbsp;&lt;br&gt;module" style="rounded=1;whiteSpace=wrap;html=1;fillColor=#b1ddf0;strokeColor=#10739e;" parent="1" vertex="1">
          <mxGeometry x="949" y="230" width="120" height="90" as="geometry" />
        </mxCell>
        <mxCell id="YlhcBeEanbGtURB7-T1P-3" value="GSM&amp;nbsp;&lt;br&gt;SIM800L module" style="rounded=1;whiteSpace=wrap;html=1;fillColor=#fa6800;strokeColor=#C73500;fontColor=#000000;" parent="1" vertex="1">
          <mxGeometry x="949" y="350" width="120" height="90" as="geometry" />
        </mxCell>
        <mxCell id="YlhcBeEanbGtURB7-T1P-4" value="MicroSD card" style="rounded=1;whiteSpace=wrap;html=1;fillColor=#f8cecc;strokeColor=#b85450;" parent="1" vertex="1">
          <mxGeometry x="949" y="500" width="120" height="90" as="geometry" />
        </mxCell>
        <mxCell id="YlhcBeEanbGtURB7-T1P-5" value="BME280" style="rounded=1;whiteSpace=wrap;html=1;fillColor=#a0522d;fontColor=#ffffff;strokeColor=#6D1F00;" parent="1" vertex="1">
          <mxGeometry x="739" y="820" width="90" height="70" as="geometry" />
        </mxCell>
        <mxCell id="YlhcBeEanbGtURB7-T1P-6" value="MPU5060" style="rounded=1;whiteSpace=wrap;html=1;fillColor=#a0522d;fontColor=#ffffff;strokeColor=#6D1F00;" parent="1" vertex="1">
          <mxGeometry x="739" y="890" width="90" height="70" as="geometry" />
        </mxCell>
        <mxCell id="YlhcBeEanbGtURB7-T1P-7" value="LEDs&amp;nbsp;&lt;br&gt;Red, Green, Blue" style="rounded=1;whiteSpace=wrap;html=1;fillColor=#6d8764;fontColor=#ffffff;strokeColor=#3A5431;" parent="1" vertex="1">
          <mxGeometry x="484" y="870" width="90" height="70" as="geometry" />
        </mxCell>
        <mxCell id="YlhcBeEanbGtURB7-T1P-8" value="USB" style="rounded=1;whiteSpace=wrap;html=1;fillColor=#76608a;fontColor=#ffffff;strokeColor=#432D57;" parent="1" vertex="1">
          <mxGeometry x="574" y="50" width="100" height="70" as="geometry" />
        </mxCell>
        <mxCell id="YlhcBeEanbGtURB7-T1P-25" value="" style="edgeStyle=orthogonalEdgeStyle;rounded=0;orthogonalLoop=1;jettySize=auto;html=1;" parent="1" source="YlhcBeEanbGtURB7-T1P-9" target="YlhcBeEanbGtURB7-T1P-24" edge="1">
          <mxGeometry relative="1" as="geometry" />
        </mxCell>
        <mxCell id="YlhcBeEanbGtURB7-T1P-50" value="" style="edgeStyle=orthogonalEdgeStyle;rounded=0;orthogonalLoop=1;jettySize=auto;html=1;" parent="1" source="YlhcBeEanbGtURB7-T1P-9" target="YlhcBeEanbGtURB7-T1P-48" edge="1">
          <mxGeometry relative="1" as="geometry" />
        </mxCell>
        <mxCell id="YlhcBeEanbGtURB7-T1P-9" value="Battery" style="rounded=1;whiteSpace=wrap;html=1;fillColor=#008a00;strokeColor=#005700;fontColor=#ffffff;" parent="1" vertex="1">
          <mxGeometry x="59" y="270" width="190" height="50" as="geometry" />
        </mxCell>
        <mxCell id="YlhcBeEanbGtURB7-T1P-10" value="Charger/protection" style="rounded=1;whiteSpace=wrap;html=1;fillColor=#76608a;fontColor=#ffffff;strokeColor=#432D57;" parent="1" vertex="1">
          <mxGeometry x="89" y="140" width="130" height="70" as="geometry" />
        </mxCell>
        <mxCell id="YlhcBeEanbGtURB7-T1P-11" value="DC/DC Step up (4V)&lt;br&gt;(For GSM module)" style="rounded=1;whiteSpace=wrap;html=1;fillColor=#d80073;fontColor=#ffffff;strokeColor=#A50040;" parent="1" vertex="1">
          <mxGeometry x="9" y="535" width="130" height="70" as="geometry" />
        </mxCell>
        <mxCell id="YlhcBeEanbGtURB7-T1P-12" value="linear voltage stabilizer 3.3 V (for all)" style="rounded=1;whiteSpace=wrap;html=1;fillColor=#d80073;fontColor=#ffffff;strokeColor=#A50040;" parent="1" vertex="1">
          <mxGeometry x="169" y="535" width="130" height="70" as="geometry" />
        </mxCell>
        <mxCell id="YlhcBeEanbGtURB7-T1P-14" value="Firmware and terminal" style="text;html=1;align=center;verticalAlign=middle;resizable=0;points=[];autosize=1;strokeColor=none;fillColor=none;" parent="1" vertex="1">
          <mxGeometry x="469" y="150" width="140" height="30" as="geometry" />
        </mxCell>
        <mxCell id="YlhcBeEanbGtURB7-T1P-16" value="" style="shape=flexArrow;endArrow=classic;startArrow=classic;html=1;rounded=0;entryX=0.5;entryY=1;entryDx=0;entryDy=0;exitX=0.5;exitY=0;exitDx=0;exitDy=0;" parent="1" source="YlhcBeEanbGtURB7-T1P-1" target="YlhcBeEanbGtURB7-T1P-8" edge="1">
          <mxGeometry width="100" height="100" relative="1" as="geometry">
            <mxPoint x="449" y="320" as="sourcePoint" />
            <mxPoint x="549" y="220" as="targetPoint" />
          </mxGeometry>
        </mxCell>
        <mxCell id="YlhcBeEanbGtURB7-T1P-17" value="" style="endArrow=classic;html=1;rounded=0;entryX=0.5;entryY=0;entryDx=0;entryDy=0;" parent="1" target="YlhcBeEanbGtURB7-T1P-10" edge="1">
          <mxGeometry width="50" height="50" relative="1" as="geometry">
            <mxPoint x="399" y="90" as="sourcePoint" />
            <mxPoint x="409" y="250" as="targetPoint" />
            <Array as="points">
              <mxPoint x="154" y="90" />
            </Array>
          </mxGeometry>
        </mxCell>
        <mxCell id="YlhcBeEanbGtURB7-T1P-18" value="5V" style="text;html=1;align=center;verticalAlign=middle;resizable=0;points=[];autosize=1;strokeColor=none;fillColor=none;" parent="1" vertex="1">
          <mxGeometry x="359" y="60" width="40" height="30" as="geometry" />
        </mxCell>
        <mxCell id="YlhcBeEanbGtURB7-T1P-19" value="" style="endArrow=classic;html=1;rounded=0;exitX=0.5;exitY=1;exitDx=0;exitDy=0;entryX=0.5;entryY=0;entryDx=0;entryDy=0;" parent="1" source="YlhcBeEanbGtURB7-T1P-10" target="YlhcBeEanbGtURB7-T1P-9" edge="1">
          <mxGeometry width="50" height="50" relative="1" as="geometry">
            <mxPoint x="339" y="340" as="sourcePoint" />
            <mxPoint x="389" y="290" as="targetPoint" />
          </mxGeometry>
        </mxCell>
        <mxCell id="YlhcBeEanbGtURB7-T1P-22" value="" style="endArrow=classic;html=1;rounded=0;exitX=-0.043;exitY=0.567;exitDx=0;exitDy=0;entryX=0;entryY=0.5;entryDx=0;entryDy=0;exitPerimeter=0;" parent="1" source="YlhcBeEanbGtURB7-T1P-8" target="YlhcBeEanbGtURB7-T1P-24" edge="1">
          <mxGeometry width="50" height="50" relative="1" as="geometry">
            <mxPoint x="404" y="90" as="sourcePoint" />
            <mxPoint x="29" y="375" as="targetPoint" />
            <Array as="points">
              <mxPoint x="29" y="90" />
              <mxPoint x="29" y="415" />
            </Array>
          </mxGeometry>
        </mxCell>
        <mxCell id="YlhcBeEanbGtURB7-T1P-24" value="Power switcher" style="rounded=1;whiteSpace=wrap;html=1;fillColor=#d80073;fontColor=#ffffff;strokeColor=#A50040;" parent="1" vertex="1">
          <mxGeometry x="89" y="380" width="130" height="70" as="geometry" />
        </mxCell>
        <mxCell id="YlhcBeEanbGtURB7-T1P-26" value="" style="endArrow=classic;html=1;rounded=0;exitX=0.5;exitY=1;exitDx=0;exitDy=0;entryX=0.463;entryY=0.021;entryDx=0;entryDy=0;entryPerimeter=0;" parent="1" source="YlhcBeEanbGtURB7-T1P-24" target="YlhcBeEanbGtURB7-T1P-12" edge="1">
          <mxGeometry width="50" height="50" relative="1" as="geometry">
            <mxPoint x="309" y="420" as="sourcePoint" />
            <mxPoint x="359" y="370" as="targetPoint" />
          </mxGeometry>
        </mxCell>
        <mxCell id="YlhcBeEanbGtURB7-T1P-27" value="" style="endArrow=classic;html=1;rounded=0;exitX=0.5;exitY=1;exitDx=0;exitDy=0;entryX=0.5;entryY=0;entryDx=0;entryDy=0;" parent="1" source="YlhcBeEanbGtURB7-T1P-24" target="YlhcBeEanbGtURB7-T1P-11" edge="1">
          <mxGeometry width="50" height="50" relative="1" as="geometry">
            <mxPoint x="309" y="420" as="sourcePoint" />
            <mxPoint x="359" y="370" as="targetPoint" />
          </mxGeometry>
        </mxCell>
        <mxCell id="YlhcBeEanbGtURB7-T1P-35" value="" style="shape=flexArrow;endArrow=classic;startArrow=classic;html=1;rounded=0;entryX=0;entryY=0.5;entryDx=0;entryDy=0;exitX=1.017;exitY=0.117;exitDx=0;exitDy=0;exitPerimeter=0;" parent="1" source="YlhcBeEanbGtURB7-T1P-1" target="YlhcBeEanbGtURB7-T1P-2" edge="1">
          <mxGeometry width="100" height="100" relative="1" as="geometry">
            <mxPoint x="859" y="520" as="sourcePoint" />
            <mxPoint x="879" y="274.9949999999999" as="targetPoint" />
          </mxGeometry>
        </mxCell>
        <mxCell id="YlhcBeEanbGtURB7-T1P-36" value="UART" style="text;html=1;align=center;verticalAlign=middle;resizable=0;points=[];autosize=1;strokeColor=none;fillColor=none;" parent="1" vertex="1">
          <mxGeometry x="789" y="230" width="60" height="30" as="geometry" />
        </mxCell>
        <mxCell id="YlhcBeEanbGtURB7-T1P-37" value="" style="shape=flexArrow;endArrow=classic;startArrow=classic;html=1;rounded=0;exitX=1.017;exitY=0.117;exitDx=0;exitDy=0;exitPerimeter=0;" parent="1" target="YlhcBeEanbGtURB7-T1P-3" edge="1">
          <mxGeometry width="100" height="100" relative="1" as="geometry">
            <mxPoint x="749" y="394.5" as="sourcePoint" />
            <mxPoint x="875" y="395.5" as="targetPoint" />
          </mxGeometry>
        </mxCell>
        <mxCell id="YlhcBeEanbGtURB7-T1P-38" value="UART" style="text;html=1;align=center;verticalAlign=middle;resizable=0;points=[];autosize=1;strokeColor=none;fillColor=none;" parent="1" vertex="1">
          <mxGeometry x="789" y="360" width="60" height="30" as="geometry" />
        </mxCell>
        <mxCell id="YlhcBeEanbGtURB7-T1P-39" value="ON/OFF Switcher" style="shape=or;whiteSpace=wrap;html=1;" parent="1" vertex="1">
          <mxGeometry x="1079" y="251.88" width="110" height="46.25" as="geometry" />
        </mxCell>
        <mxCell id="YlhcBeEanbGtURB7-T1P-40" value="ON/OFF Switcher" style="shape=or;whiteSpace=wrap;html=1;" parent="1" vertex="1">
          <mxGeometry x="1079" y="371.88" width="110" height="46.25" as="geometry" />
        </mxCell>
        <mxCell id="YlhcBeEanbGtURB7-T1P-41" value="" style="shape=flexArrow;endArrow=classic;startArrow=classic;html=1;rounded=0;exitX=1.017;exitY=0.117;exitDx=0;exitDy=0;exitPerimeter=0;" parent="1" edge="1">
          <mxGeometry width="100" height="100" relative="1" as="geometry">
            <mxPoint x="749" y="550" as="sourcePoint" />
            <mxPoint x="949" y="550.5" as="targetPoint" />
          </mxGeometry>
        </mxCell>
        <mxCell id="YlhcBeEanbGtURB7-T1P-42" value="SPI" style="text;html=1;align=center;verticalAlign=middle;resizable=0;points=[];autosize=1;strokeColor=none;fillColor=none;" parent="1" vertex="1">
          <mxGeometry x="829" y="510" width="40" height="30" as="geometry" />
        </mxCell>
        <mxCell id="YlhcBeEanbGtURB7-T1P-43" value="" style="shape=flexArrow;endArrow=classic;startArrow=classic;html=1;rounded=0;exitX=0.5;exitY=0;exitDx=0;exitDy=0;entryX=0.598;entryY=1.006;entryDx=0;entryDy=0;entryPerimeter=0;" parent="1" source="YlhcBeEanbGtURB7-T1P-5" target="YlhcBeEanbGtURB7-T1P-1" edge="1">
          <mxGeometry width="100" height="100" relative="1" as="geometry">
            <mxPoint x="619" y="650" as="sourcePoint" />
            <mxPoint x="719" y="550" as="targetPoint" />
          </mxGeometry>
        </mxCell>
        <mxCell id="YlhcBeEanbGtURB7-T1P-44" value="I2C" style="text;html=1;align=center;verticalAlign=middle;resizable=0;points=[];autosize=1;strokeColor=none;fillColor=none;" parent="1" vertex="1">
          <mxGeometry x="729" y="730" width="40" height="30" as="geometry" />
        </mxCell>
        <mxCell id="YlhcBeEanbGtURB7-T1P-45" value="" style="shape=flexArrow;endArrow=classic;html=1;rounded=0;entryX=0.5;entryY=0;entryDx=0;entryDy=0;exitX=0.129;exitY=1.006;exitDx=0;exitDy=0;exitPerimeter=0;" parent="1" source="YlhcBeEanbGtURB7-T1P-1" target="YlhcBeEanbGtURB7-T1P-7" edge="1">
          <mxGeometry width="50" height="50" relative="1" as="geometry">
            <mxPoint x="509" y="790" as="sourcePoint" />
            <mxPoint x="679" y="650" as="targetPoint" />
          </mxGeometry>
        </mxCell>
        <mxCell id="YlhcBeEanbGtURB7-T1P-46" value="GPIOs" style="text;html=1;align=center;verticalAlign=middle;resizable=0;points=[];autosize=1;strokeColor=none;fillColor=none;" parent="1" vertex="1">
          <mxGeometry x="459" y="770" width="60" height="30" as="geometry" />
        </mxCell>
        <mxCell id="YlhcBeEanbGtURB7-T1P-47" value="" style="endArrow=classic;html=1;rounded=0;entryX=-0.003;entryY=0.225;entryDx=0;entryDy=0;entryPerimeter=0;exitX=1;exitY=0.5;exitDx=0;exitDy=0;" parent="1" source="YlhcBeEanbGtURB7-T1P-48" target="YlhcBeEanbGtURB7-T1P-1" edge="1">
          <mxGeometry width="50" height="50" relative="1" as="geometry">
            <mxPoint x="429" y="320" as="sourcePoint" />
            <mxPoint x="649" y="400" as="targetPoint" />
          </mxGeometry>
        </mxCell>
        <mxCell id="YlhcBeEanbGtURB7-T1P-48" value="voltage divider&lt;br&gt;(get battery voltage)" style="rounded=1;whiteSpace=wrap;html=1;fillColor=#ffcc99;strokeColor=#36393d;" parent="1" vertex="1">
          <mxGeometry x="289" y="270" width="130" height="50" as="geometry" />
        </mxCell>
        <mxCell id="YlhcBeEanbGtURB7-T1P-49" value="ADC" style="text;html=1;align=center;verticalAlign=middle;resizable=0;points=[];autosize=1;strokeColor=none;fillColor=none;" parent="1" vertex="1">
          <mxGeometry x="434" y="278" width="50" height="30" as="geometry" />
        </mxCell>
        <mxCell id="RXZ0eFl1-a3viZHCUMng-57" style="edgeStyle=orthogonalEdgeStyle;rounded=0;orthogonalLoop=1;jettySize=auto;html=1;" parent="1" source="7OEHtTSeNIAFF6rPtCQs-1" edge="1">
          <mxGeometry relative="1" as="geometry">
            <mxPoint x="1874.9999999999995" y="138.33336239769346" as="targetPoint" />
          </mxGeometry>
        </mxCell>
        <mxCell id="7OEHtTSeNIAFF6rPtCQs-1" value="Start (app_main)" style="rounded=1;whiteSpace=wrap;html=1;" parent="1" vertex="1">
          <mxGeometry x="1811" y="21.999999999999993" width="128" height="54.12" as="geometry" />
        </mxCell>
        <mxCell id="IAE02krrpLUfDQyFtPKX-36" value="" style="edgeStyle=orthogonalEdgeStyle;rounded=0;orthogonalLoop=1;jettySize=auto;html=1;" parent="1" target="IAE02krrpLUfDQyFtPKX-34" edge="1">
          <mxGeometry relative="1" as="geometry">
            <mxPoint x="2307" y="361" as="sourcePoint" />
            <Array as="points">
              <mxPoint x="2318" y="361" />
              <mxPoint x="2318" y="415" />
            </Array>
          </mxGeometry>
        </mxCell>
        <mxCell id="IAE02krrpLUfDQyFtPKX-46" value="" style="edgeStyle=orthogonalEdgeStyle;rounded=0;orthogonalLoop=1;jettySize=auto;html=1;" parent="1" source="IAE02krrpLUfDQyFtPKX-19" target="IAE02krrpLUfDQyFtPKX-45" edge="1">
          <mxGeometry relative="1" as="geometry" />
        </mxCell>
        <mxCell id="IAE02krrpLUfDQyFtPKX-19" value="Command: Reset module" style="rounded=1;whiteSpace=wrap;html=1;fillColor=#a20025;fontColor=#ffffff;strokeColor=#6F0000;" parent="1" vertex="1">
          <mxGeometry x="2367" y="614.8199999999999" width="152" height="58" as="geometry" />
        </mxCell>
        <mxCell id="IAE02krrpLUfDQyFtPKX-56" value="" style="edgeStyle=orthogonalEdgeStyle;rounded=0;orthogonalLoop=1;jettySize=auto;html=1;" parent="1" source="IAE02krrpLUfDQyFtPKX-20" target="IAE02krrpLUfDQyFtPKX-48" edge="1">
          <mxGeometry relative="1" as="geometry" />
        </mxCell>
        <mxCell id="IAE02krrpLUfDQyFtPKX-20" value="Command: Get bttery status" style="rounded=1;whiteSpace=wrap;html=1;" parent="1" vertex="1">
          <mxGeometry x="1368" y="1900" width="152" height="58" as="geometry" />
        </mxCell>
        <mxCell id="RXZ0eFl1-a3viZHCUMng-64" style="edgeStyle=orthogonalEdgeStyle;rounded=0;orthogonalLoop=1;jettySize=auto;html=1;entryX=0.5;entryY=0;entryDx=0;entryDy=0;" parent="1" source="IAE02krrpLUfDQyFtPKX-34" target="RXZ0eFl1-a3viZHCUMng-47" edge="1">
          <mxGeometry relative="1" as="geometry">
            <Array as="points">
              <mxPoint x="2830" y="415" />
              <mxPoint x="3256" y="415" />
            </Array>
          </mxGeometry>
        </mxCell>
        <mxCell id="IAE02krrpLUfDQyFtPKX-34" value="Command: logON" style="rounded=1;whiteSpace=wrap;html=1;fillColor=#a20025;fontColor=#ffffff;strokeColor=#6F0000;" parent="1" vertex="1">
          <mxGeometry x="2365" y="387.64000000000004" width="128" height="54.12" as="geometry" />
        </mxCell>
        <mxCell id="IAE02krrpLUfDQyFtPKX-37" value="Command: logOFF" style="rounded=1;whiteSpace=wrap;html=1;fillColor=#a20025;fontColor=#ffffff;strokeColor=#6F0000;" parent="1" vertex="1">
          <mxGeometry x="2367" y="482.64000000000004" width="128" height="54.12" as="geometry" />
        </mxCell>
        <mxCell id="IAE02krrpLUfDQyFtPKX-41" value="" style="endArrow=classic;html=1;rounded=0;exitX=1;exitY=0.5;exitDx=0;exitDy=0;entryX=0.5;entryY=0;entryDx=0;entryDy=0;" parent="1" source="IAE02krrpLUfDQyFtPKX-37" target="RXZ0eFl1-a3viZHCUMng-1" edge="1">
          <mxGeometry width="50" height="50" relative="1" as="geometry">
            <mxPoint x="2545" y="566.7" as="sourcePoint" />
            <mxPoint x="2705" y="606.9600000000005" as="targetPoint" />
            <Array as="points">
              <mxPoint x="3013" y="509.7" />
            </Array>
          </mxGeometry>
        </mxCell>
        <mxCell id="RXZ0eFl1-a3viZHCUMng-14" style="edgeStyle=orthogonalEdgeStyle;rounded=0;orthogonalLoop=1;jettySize=auto;html=1;exitX=0.534;exitY=1.02;exitDx=0;exitDy=0;exitPerimeter=0;" parent="1" source="IAE02krrpLUfDQyFtPKX-45" edge="1">
          <mxGeometry relative="1" as="geometry">
            <mxPoint x="3018.97" y="1155.88" as="targetPoint" />
            <mxPoint x="2845.9985714285717" y="702.9999999999999" as="sourcePoint" />
            <Array as="points">
              <mxPoint x="2847" y="1156" />
            </Array>
          </mxGeometry>
        </mxCell>
        <mxCell id="IAE02krrpLUfDQyFtPKX-45" value="Reset GSM module and ESP32" style="rounded=1;whiteSpace=wrap;html=1;fillColor=#1ba1e2;fontColor=#ffffff;strokeColor=#006EAF;" parent="1" vertex="1">
          <mxGeometry x="2774" y="616.8199999999999" width="136" height="54" as="geometry" />
        </mxCell>
        <mxCell id="IAE02krrpLUfDQyFtPKX-53" value="" style="edgeStyle=orthogonalEdgeStyle;rounded=0;orthogonalLoop=1;jettySize=auto;html=1;" parent="1" source="IAE02krrpLUfDQyFtPKX-48" target="IAE02krrpLUfDQyFtPKX-49" edge="1">
          <mxGeometry relative="1" as="geometry" />
        </mxCell>
        <mxCell id="IAE02krrpLUfDQyFtPKX-48" value="Init ADC (battery voltage)" style="rounded=1;whiteSpace=wrap;html=1;" parent="1" vertex="1">
          <mxGeometry x="1613" y="1901.94" width="128" height="54.12" as="geometry" />
        </mxCell>
        <mxCell id="IAE02krrpLUfDQyFtPKX-54" value="" style="edgeStyle=orthogonalEdgeStyle;rounded=0;orthogonalLoop=1;jettySize=auto;html=1;" parent="1" source="IAE02krrpLUfDQyFtPKX-49" target="IAE02krrpLUfDQyFtPKX-50" edge="1">
          <mxGeometry relative="1" as="geometry" />
        </mxCell>
        <mxCell id="IAE02krrpLUfDQyFtPKX-49" value="Meassure battery voltage" style="rounded=1;whiteSpace=wrap;html=1;" parent="1" vertex="1">
          <mxGeometry x="1613" y="2008.06" width="128" height="54.12" as="geometry" />
        </mxCell>
        <mxCell id="IAE02krrpLUfDQyFtPKX-50" value="Send SMS back" style="rounded=1;whiteSpace=wrap;html=1;" parent="1" vertex="1">
          <mxGeometry x="1613" y="2114.06" width="128" height="54.12" as="geometry" />
        </mxCell>
        <mxCell id="IAE02krrpLUfDQyFtPKX-55" value="" style="edgeStyle=orthogonalEdgeStyle;rounded=0;orthogonalLoop=1;jettySize=auto;html=1;" parent="1" source="IAE02krrpLUfDQyFtPKX-51" target="IAE02krrpLUfDQyFtPKX-52" edge="1">
          <mxGeometry relative="1" as="geometry" />
        </mxCell>
        <mxCell id="IAE02krrpLUfDQyFtPKX-51" value="Input call from mu number" style="rounded=1;whiteSpace=wrap;html=1;" parent="1" vertex="1">
          <mxGeometry x="1559" y="2221.32" width="152" height="58" as="geometry" />
        </mxCell>
        <mxCell id="IAE02krrpLUfDQyFtPKX-52" value="pick up the phone" style="rounded=1;whiteSpace=wrap;html=1;" parent="1" vertex="1">
          <mxGeometry x="1801" y="2223.26" width="128" height="54.12" as="geometry" />
        </mxCell>
        <mxCell id="IAE02krrpLUfDQyFtPKX-72" value="Init GPS" style="rounded=1;whiteSpace=wrap;html=1;fillColor=#1ba1e2;fontColor=#ffffff;strokeColor=#006EAF;" parent="1" vertex="1">
          <mxGeometry x="3197.5" y="608.0800000000002" width="128" height="54.12" as="geometry" />
        </mxCell>
        <mxCell id="AnVQf3OLI9KUwn47Dejs-8" value="" style="edgeStyle=orthogonalEdgeStyle;rounded=0;orthogonalLoop=1;jettySize=auto;html=1;" parent="1" source="IAE02krrpLUfDQyFtPKX-73" target="AnVQf3OLI9KUwn47Dejs-5" edge="1">
          <mxGeometry relative="1" as="geometry" />
        </mxCell>
        <mxCell id="IAE02krrpLUfDQyFtPKX-73" value="Init Micro SD Card" style="rounded=1;whiteSpace=wrap;html=1;fillColor=#1ba1e2;fontColor=#ffffff;strokeColor=#006EAF;" parent="1" vertex="1">
          <mxGeometry x="3197.5" y="688.0800000000002" width="128" height="54.12" as="geometry" />
        </mxCell>
        <mxCell id="IAE02krrpLUfDQyFtPKX-77" value="Init ADC (battery voltage)" style="rounded=1;whiteSpace=wrap;html=1;" parent="1" vertex="1">
          <mxGeometry x="1784" y="870" width="128" height="54.12" as="geometry" />
        </mxCell>
        <mxCell id="IAE02krrpLUfDQyFtPKX-78" value="" style="edgeStyle=orthogonalEdgeStyle;rounded=0;orthogonalLoop=1;jettySize=auto;html=1;" parent="1" source="IAE02krrpLUfDQyFtPKX-79" target="IAE02krrpLUfDQyFtPKX-82" edge="1">
          <mxGeometry relative="1" as="geometry" />
        </mxCell>
        <mxCell id="IAE02krrpLUfDQyFtPKX-79" value="Log data on file Micro SD Card" style="rounded=1;whiteSpace=wrap;html=1;fillColor=#1ba1e2;fontColor=#ffffff;strokeColor=#006EAF;" parent="1" vertex="1">
          <mxGeometry x="3197" y="946.7" width="128" height="54.12" as="geometry" />
        </mxCell>
        <mxCell id="IAE02krrpLUfDQyFtPKX-80" value="" style="edgeStyle=orthogonalEdgeStyle;rounded=0;orthogonalLoop=1;jettySize=auto;html=1;" parent="1" source="IAE02krrpLUfDQyFtPKX-81" target="IAE02krrpLUfDQyFtPKX-79" edge="1">
          <mxGeometry relative="1" as="geometry" />
        </mxCell>
        <mxCell id="IAE02krrpLUfDQyFtPKX-81" value="Convert GPS data in Google Earth format" style="rounded=1;whiteSpace=wrap;html=1;fillColor=#1ba1e2;fontColor=#ffffff;strokeColor=#006EAF;" parent="1" vertex="1">
          <mxGeometry x="3197" y="857.1400000000001" width="128" height="54.12" as="geometry" />
        </mxCell>
        <mxCell id="RXZ0eFl1-a3viZHCUMng-66" style="edgeStyle=orthogonalEdgeStyle;rounded=0;orthogonalLoop=1;jettySize=auto;html=1;" parent="1" source="IAE02krrpLUfDQyFtPKX-82" edge="1">
          <mxGeometry relative="1" as="geometry">
            <mxPoint x="3386.230769230769" y="1084.7" as="targetPoint" />
          </mxGeometry>
        </mxCell>
        <mxCell id="IAE02krrpLUfDQyFtPKX-82" value="SMS from GSM &quot;logOFF&quot;?" style="rhombus;whiteSpace=wrap;html=1;fillColor=#1ba1e2;fontColor=#ffffff;strokeColor=#006EAF;" parent="1" vertex="1">
          <mxGeometry x="3169" y="1031.7" width="184" height="106" as="geometry" />
        </mxCell>
        <mxCell id="IAE02krrpLUfDQyFtPKX-83" value="Yes" style="text;html=1;align=center;verticalAlign=middle;resizable=0;points=[];autosize=1;strokeColor=none;fillColor=none;" parent="1" vertex="1">
          <mxGeometry x="3332" y="1049.14" width="38" height="26" as="geometry" />
        </mxCell>
        <mxCell id="IAE02krrpLUfDQyFtPKX-86" value="No" style="text;html=1;align=center;verticalAlign=middle;resizable=0;points=[];autosize=1;strokeColor=none;fillColor=none;" parent="1" vertex="1">
          <mxGeometry x="3146" y="1049.14" width="33" height="26" as="geometry" />
        </mxCell>
        <mxCell id="IAE02krrpLUfDQyFtPKX-88" value="" style="endArrow=classic;html=1;rounded=0;entryX=0;entryY=0.5;entryDx=0;entryDy=0;" parent="1" target="IAE02krrpLUfDQyFtPKX-37" edge="1">
          <mxGeometry width="50" height="50" relative="1" as="geometry">
            <mxPoint x="2317" y="377" as="sourcePoint" />
            <mxPoint x="2318" y="554.7" as="targetPoint" />
            <Array as="points">
              <mxPoint x="2320" y="413.7" />
              <mxPoint x="2319" y="509.7" />
            </Array>
          </mxGeometry>
        </mxCell>
        <mxCell id="IAE02krrpLUfDQyFtPKX-90" value="Command: Запустити інтернет для SIM800L" style="rounded=1;whiteSpace=wrap;html=1;" parent="1" vertex="1">
          <mxGeometry x="1568" y="2400" width="128" height="54.12" as="geometry" />
        </mxCell>
        <mxCell id="EyCy8aTWz1eDIl0mPeRE-1" value="Parametr: ON/OFF" style="rhombus;whiteSpace=wrap;html=1;" parent="1" vertex="1">
          <mxGeometry x="2220" y="1938.0000000000002" width="184" height="106" as="geometry" />
        </mxCell>
        <mxCell id="EyCy8aTWz1eDIl0mPeRE-2" value="Yes" style="text;html=1;align=center;verticalAlign=middle;resizable=0;points=[];autosize=1;strokeColor=none;fillColor=none;" parent="1" vertex="1">
          <mxGeometry x="2399" y="1959.1200000000001" width="38" height="26" as="geometry" />
        </mxCell>
        <mxCell id="EyCy8aTWz1eDIl0mPeRE-3" value="No" style="text;html=1;align=center;verticalAlign=middle;resizable=0;points=[];autosize=1;strokeColor=none;fillColor=none;" parent="1" vertex="1">
          <mxGeometry x="2187" y="1952.1200000000001" width="33" height="26" as="geometry" />
        </mxCell>
        <mxCell id="EyCy8aTWz1eDIl0mPeRE-4" value="Turn OFF wifi&amp;nbsp;" style="rounded=1;whiteSpace=wrap;html=1;" parent="1" vertex="1">
          <mxGeometry x="2136" y="2063.3199999999997" width="128" height="54.12" as="geometry" />
        </mxCell>
        <mxCell id="EyCy8aTWz1eDIl0mPeRE-5" value="" style="edgeStyle=orthogonalEdgeStyle;rounded=0;orthogonalLoop=1;jettySize=auto;html=1;" parent="1" source="EyCy8aTWz1eDIl0mPeRE-6" target="EyCy8aTWz1eDIl0mPeRE-7" edge="1">
          <mxGeometry relative="1" as="geometry" />
        </mxCell>
        <mxCell id="EyCy8aTWz1eDIl0mPeRE-6" value="Init and run WiFi server" style="rounded=1;whiteSpace=wrap;html=1;" parent="1" vertex="1">
          <mxGeometry x="2404" y="2068" width="136" height="54" as="geometry" />
        </mxCell>
        <mxCell id="EyCy8aTWz1eDIl0mPeRE-7" value="Load page (interface)" style="rounded=1;whiteSpace=wrap;html=1;" parent="1" vertex="1">
          <mxGeometry x="2404" y="2160.56" width="136" height="54" as="geometry" />
        </mxCell>
        <mxCell id="EyCy8aTWz1eDIl0mPeRE-8" value="Вікно в браузері:&lt;br&gt;1. Кнопки&lt;div&gt;&lt;span style=&quot;white-space: pre;&quot;&gt;&#x9;&lt;/span&gt;1. ON/OFF GPS.&lt;/div&gt;&lt;div&gt;&lt;span style=&quot;white-space: pre;&quot;&gt;&#x9;&lt;/span&gt;2. ON/OFF LOG.&lt;/div&gt;&lt;div&gt;&lt;span style=&quot;white-space: pre;&quot;&gt;&#x9;&lt;/span&gt;3. ON/OFF RGB LEDs&lt;/div&gt;&lt;div&gt;&lt;span style=&quot;white-space: pre;&quot;&gt;&#x9;&lt;/span&gt;4. Перезагрузка всього дівайсу.&lt;/div&gt;&lt;div&gt;&lt;span style=&quot;white-space: pre;&quot;&gt;&#x9;&lt;/span&gt;5. Задати як часто логувати дані.(1 сек до 60 сек)&lt;br&gt;2. Вікна з інформацією:&lt;div&gt;&lt;span style=&quot;white-space: pre;&quot;&gt;&#x9;&lt;/span&gt;1.Зарад батереї В процентах&lt;br&gt;&lt;span style=&quot;white-space: pre;&quot;&gt;&#x9;&lt;/span&gt;2. Координати GPS&lt;/div&gt;&lt;div style=&quot;&quot;&gt;&lt;span style=&quot;white-space: pre;&quot;&gt;&#x9;&lt;/span&gt;3. Температура&lt;/div&gt;&lt;div style=&quot;&quot;&gt;&lt;span style=&quot;white-space: pre;&quot;&gt;&#x9;&lt;/span&gt;4. Скільки вільного місця на флешці&lt;br&gt;&lt;span style=&quot;white-space: pre;&quot;&gt;&#x9;&lt;/span&gt;5. Дані з Micro SD Card (Скачування видаляння)&lt;br&gt;&lt;/div&gt;&lt;div&gt;&lt;br&gt;&lt;/div&gt;&lt;/div&gt;" style="text;html=1;align=left;verticalAlign=middle;resizable=0;points=[];autosize=1;strokeColor=none;fillColor=none;" parent="1" vertex="1">
          <mxGeometry x="2225" y="2243.74" width="320" height="214" as="geometry" />
        </mxCell>
        <mxCell id="RXZ0eFl1-a3viZHCUMng-3" style="edgeStyle=orthogonalEdgeStyle;rounded=0;orthogonalLoop=1;jettySize=auto;html=1;entryX=0.5;entryY=0;entryDx=0;entryDy=0;" parent="1" source="AnVQf3OLI9KUwn47Dejs-5" target="IAE02krrpLUfDQyFtPKX-81" edge="1">
          <mxGeometry relative="1" as="geometry" />
        </mxCell>
        <mxCell id="AnVQf3OLI9KUwn47Dejs-5" value="Get GPS data" style="rounded=1;whiteSpace=wrap;html=1;fillColor=#1ba1e2;fontColor=#ffffff;strokeColor=#006EAF;" parent="1" vertex="1">
          <mxGeometry x="3196.5" y="770.02" width="128" height="54.12" as="geometry" />
        </mxCell>
        <mxCell id="AnVQf3OLI9KUwn47Dejs-10" value="" style="endArrow=classic;html=1;rounded=0;exitX=0.5;exitY=1;exitDx=0;exitDy=0;" parent="1" source="IAE02krrpLUfDQyFtPKX-72" edge="1">
          <mxGeometry width="50" height="50" relative="1" as="geometry">
            <mxPoint x="3236.5" y="836.02" as="sourcePoint" />
            <mxPoint x="3260.5" y="688.02" as="targetPoint" />
          </mxGeometry>
        </mxCell>
        <mxCell id="RXZ0eFl1-a3viZHCUMng-2" style="edgeStyle=orthogonalEdgeStyle;rounded=0;orthogonalLoop=1;jettySize=auto;html=1;entryX=0.5;entryY=0;entryDx=0;entryDy=0;" parent="1" source="AnVQf3OLI9KUwn47Dejs-11" target="IAE02krrpLUfDQyFtPKX-72" edge="1">
          <mxGeometry relative="1" as="geometry" />
        </mxCell>
        <mxCell id="AnVQf3OLI9KUwn47Dejs-11" value="GSM SMS ansver (Start log GPS data)" style="rounded=1;whiteSpace=wrap;html=1;fillColor=#1ba1e2;fontColor=#ffffff;strokeColor=#006EAF;" parent="1" vertex="1">
          <mxGeometry x="3197" y="527.02" width="128" height="54.12" as="geometry" />
        </mxCell>
        <mxCell id="AnVQf3OLI9KUwn47Dejs-12" value="" style="endArrow=classic;html=1;rounded=0;entryX=0;entryY=0.5;entryDx=0;entryDy=0;exitX=0;exitY=0.473;exitDx=0;exitDy=0;exitPerimeter=0;" parent="1" source="IAE02krrpLUfDQyFtPKX-82" target="AnVQf3OLI9KUwn47Dejs-5" edge="1">
          <mxGeometry width="50" height="50" relative="1" as="geometry">
            <mxPoint x="3419" y="1122.14" as="sourcePoint" />
            <mxPoint x="3469" y="1072.14" as="targetPoint" />
            <Array as="points">
              <mxPoint x="3131" y="1082.14" />
              <mxPoint x="3131" y="797.1400000000001" />
            </Array>
          </mxGeometry>
        </mxCell>
        <mxCell id="RXZ0eFl1-a3viZHCUMng-9" style="edgeStyle=orthogonalEdgeStyle;rounded=0;orthogonalLoop=1;jettySize=auto;html=1;entryX=0.5;entryY=0;entryDx=0;entryDy=0;" parent="1" source="RXZ0eFl1-a3viZHCUMng-1" target="RXZ0eFl1-a3viZHCUMng-5" edge="1">
          <mxGeometry relative="1" as="geometry" />
        </mxCell>
        <mxCell id="RXZ0eFl1-a3viZHCUMng-1" value="GSM SMS ansver (Stop log GPS data)" style="rounded=1;whiteSpace=wrap;html=1;fillColor=#1ba1e2;fontColor=#ffffff;strokeColor=#006EAF;" parent="1" vertex="1">
          <mxGeometry x="2950" y="564.7" width="128" height="54.12" as="geometry" />
        </mxCell>
        <mxCell id="RXZ0eFl1-a3viZHCUMng-10" style="edgeStyle=orthogonalEdgeStyle;rounded=0;orthogonalLoop=1;jettySize=auto;html=1;entryX=0.5;entryY=0;entryDx=0;entryDy=0;" parent="1" source="RXZ0eFl1-a3viZHCUMng-5" target="RXZ0eFl1-a3viZHCUMng-7" edge="1">
          <mxGeometry relative="1" as="geometry" />
        </mxCell>
        <mxCell id="RXZ0eFl1-a3viZHCUMng-5" value="Deinit GPS" style="rounded=1;whiteSpace=wrap;html=1;fillColor=#1ba1e2;fontColor=#ffffff;strokeColor=#006EAF;" parent="1" vertex="1">
          <mxGeometry x="2950" y="640.5800000000002" width="128" height="54.12" as="geometry" />
        </mxCell>
        <mxCell id="RXZ0eFl1-a3viZHCUMng-7" value="Deinit Micro SD Card" style="rounded=1;whiteSpace=wrap;html=1;fillColor=#1ba1e2;fontColor=#ffffff;strokeColor=#006EAF;" parent="1" vertex="1">
          <mxGeometry x="2950" y="721.7" width="128" height="54.12" as="geometry" />
        </mxCell>
        <mxCell id="RXZ0eFl1-a3viZHCUMng-11" value="" style="endArrow=classic;html=1;rounded=0;exitX=0.5;exitY=1;exitDx=0;exitDy=0;" parent="1" source="RXZ0eFl1-a3viZHCUMng-7" edge="1">
          <mxGeometry width="50" height="50" relative="1" as="geometry">
            <mxPoint x="3015" y="809.9999999999999" as="sourcePoint" />
            <mxPoint x="1873" y="308" as="targetPoint" />
            <Array as="points">
              <mxPoint x="3014" y="1156" />
              <mxPoint x="3388" y="1156" />
              <mxPoint x="3385" y="316" />
            </Array>
          </mxGeometry>
        </mxCell>
        <mxCell id="RXZ0eFl1-a3viZHCUMng-13" value="" style="endArrow=classic;html=1;rounded=0;entryX=0.008;entryY=0.541;entryDx=0;entryDy=0;entryPerimeter=0;" parent="1" target="IAE02krrpLUfDQyFtPKX-19" edge="1">
          <mxGeometry width="50" height="50" relative="1" as="geometry">
            <mxPoint x="2319" y="509.7" as="sourcePoint" />
            <mxPoint x="2367.004" y="651.4879999999998" as="targetPoint" />
            <Array as="points">
              <mxPoint x="2321" y="646.7" />
            </Array>
          </mxGeometry>
        </mxCell>
        <mxCell id="RXZ0eFl1-a3viZHCUMng-15" value="Command: point" style="rounded=1;whiteSpace=wrap;html=1;fillColor=#a20025;fontColor=#ffffff;strokeColor=#6F0000;" parent="1" vertex="1">
          <mxGeometry x="2367" y="727.7000000000002" width="128" height="54.12" as="geometry" />
        </mxCell>
        <mxCell id="RXZ0eFl1-a3viZHCUMng-16" value="" style="endArrow=classic;html=1;rounded=0;entryX=0;entryY=0.5;entryDx=0;entryDy=0;" parent="1" target="RXZ0eFl1-a3viZHCUMng-15" edge="1">
          <mxGeometry width="50" height="50" relative="1" as="geometry">
            <mxPoint x="2320" y="646.7" as="sourcePoint" />
            <mxPoint x="2870" y="726.7" as="targetPoint" />
            <Array as="points">
              <mxPoint x="2320" y="754.7" />
            </Array>
          </mxGeometry>
        </mxCell>
        <mxCell id="RXZ0eFl1-a3viZHCUMng-24" style="edgeStyle=orthogonalEdgeStyle;rounded=0;orthogonalLoop=1;jettySize=auto;html=1;entryX=0.5;entryY=0;entryDx=0;entryDy=0;" parent="1" source="RXZ0eFl1-a3viZHCUMng-17" target="RXZ0eFl1-a3viZHCUMng-21" edge="1">
          <mxGeometry relative="1" as="geometry" />
        </mxCell>
        <mxCell id="RXZ0eFl1-a3viZHCUMng-17" value="GSM SMS ansver (One point GPS START...)" style="rounded=1;whiteSpace=wrap;html=1;fillColor=#1ba1e2;fontColor=#ffffff;strokeColor=#006EAF;" parent="1" vertex="1">
          <mxGeometry x="2555" y="849.7" width="128" height="54.12" as="geometry" />
        </mxCell>
        <mxCell id="RXZ0eFl1-a3viZHCUMng-38" style="edgeStyle=orthogonalEdgeStyle;rounded=0;orthogonalLoop=1;jettySize=auto;html=1;" parent="1" source="RXZ0eFl1-a3viZHCUMng-19" edge="1">
          <mxGeometry relative="1" as="geometry">
            <mxPoint x="2452" y="1136.570381673177" as="targetPoint" />
          </mxGeometry>
        </mxCell>
        <mxCell id="RXZ0eFl1-a3viZHCUMng-19" value="Init GPS" style="rounded=1;whiteSpace=wrap;html=1;fillColor=#1ba1e2;fontColor=#ffffff;strokeColor=#006EAF;" parent="1" vertex="1">
          <mxGeometry x="2388" y="1058.7" width="128" height="54.12" as="geometry" />
        </mxCell>
        <mxCell id="RXZ0eFl1-a3viZHCUMng-28" style="edgeStyle=orthogonalEdgeStyle;rounded=0;orthogonalLoop=1;jettySize=auto;html=1;" parent="1" source="RXZ0eFl1-a3viZHCUMng-21" edge="1">
          <mxGeometry relative="1" as="geometry">
            <mxPoint x="2747.0635695684523" y="1054.2397309802827" as="targetPoint" />
          </mxGeometry>
        </mxCell>
        <mxCell id="RXZ0eFl1-a3viZHCUMng-36" style="edgeStyle=orthogonalEdgeStyle;rounded=0;orthogonalLoop=1;jettySize=auto;html=1;entryX=0.529;entryY=0.014;entryDx=0;entryDy=0;entryPerimeter=0;" parent="1" target="RXZ0eFl1-a3viZHCUMng-19" edge="1">
          <mxGeometry relative="1" as="geometry">
            <mxPoint x="2455.2223307291665" y="1028.5332926432293" as="targetPoint" />
            <mxPoint x="2510" y="1001.7" as="sourcePoint" />
            <Array as="points">
              <mxPoint x="2511" y="1001.7" />
              <mxPoint x="2511" y="1000.7" />
              <mxPoint x="2456" y="1000.7" />
            </Array>
          </mxGeometry>
        </mxCell>
        <mxCell id="RXZ0eFl1-a3viZHCUMng-21" value="If (GPS log == WORK STATUS?)" style="rhombus;whiteSpace=wrap;html=1;fillColor=#1ba1e2;fontColor=#ffffff;strokeColor=#006EAF;" parent="1" vertex="1">
          <mxGeometry x="2510" y="946.7" width="218" height="109" as="geometry" />
        </mxCell>
        <mxCell id="RXZ0eFl1-a3viZHCUMng-29" value="" style="edgeStyle=orthogonalEdgeStyle;rounded=0;orthogonalLoop=1;jettySize=auto;html=1;" parent="1" source="RXZ0eFl1-a3viZHCUMng-22" target="RXZ0eFl1-a3viZHCUMng-23" edge="1">
          <mxGeometry relative="1" as="geometry" />
        </mxCell>
        <mxCell id="RXZ0eFl1-a3viZHCUMng-22" value="Get one point GPS data" style="rounded=1;whiteSpace=wrap;html=1;fillColor=#1ba1e2;fontColor=#ffffff;strokeColor=#006EAF;" parent="1" vertex="1">
          <mxGeometry x="2683" y="1060.7" width="128" height="54.12" as="geometry" />
        </mxCell>
        <mxCell id="RXZ0eFl1-a3viZHCUMng-44" style="edgeStyle=orthogonalEdgeStyle;rounded=0;orthogonalLoop=1;jettySize=auto;html=1;exitX=0.5;exitY=1;exitDx=0;exitDy=0;entryX=0.5;entryY=0;entryDx=0;entryDy=0;" parent="1" source="RXZ0eFl1-a3viZHCUMng-23" target="RXZ0eFl1-a3viZHCUMng-34" edge="1">
          <mxGeometry relative="1" as="geometry">
            <mxPoint x="2621.333455403646" y="1464.7411653645836" as="targetPoint" />
            <mxPoint x="2683" y="1254.6966666666667" as="sourcePoint" />
            <Array as="points">
              <mxPoint x="2747" y="1329.7" />
              <mxPoint x="2621" y="1329.7" />
              <mxPoint x="2621" y="1385.7" />
            </Array>
          </mxGeometry>
        </mxCell>
        <mxCell id="RXZ0eFl1-a3viZHCUMng-23" value="Send data over SMS" style="rounded=1;whiteSpace=wrap;html=1;fillColor=#1ba1e2;fontColor=#ffffff;strokeColor=#006EAF;" parent="1" vertex="1">
          <mxGeometry x="2683" y="1146.7" width="128" height="54.12" as="geometry" />
        </mxCell>
        <mxCell id="RXZ0eFl1-a3viZHCUMng-25" value="No" style="text;html=1;align=center;verticalAlign=middle;resizable=0;points=[];autosize=1;strokeColor=none;fillColor=none;" parent="1" vertex="1">
          <mxGeometry x="2483" y="961.7" width="33" height="26" as="geometry" />
        </mxCell>
        <mxCell id="RXZ0eFl1-a3viZHCUMng-26" value="Yes" style="text;html=1;align=center;verticalAlign=middle;resizable=0;points=[];autosize=1;strokeColor=none;fillColor=none;" parent="1" vertex="1">
          <mxGeometry x="2714" y="967" width="38" height="26" as="geometry" />
        </mxCell>
        <mxCell id="RXZ0eFl1-a3viZHCUMng-43" style="edgeStyle=orthogonalEdgeStyle;rounded=0;orthogonalLoop=1;jettySize=auto;html=1;entryX=0.5;entryY=0;entryDx=0;entryDy=0;" parent="1" source="RXZ0eFl1-a3viZHCUMng-27" target="RXZ0eFl1-a3viZHCUMng-34" edge="1">
          <mxGeometry relative="1" as="geometry" />
        </mxCell>
        <mxCell id="RXZ0eFl1-a3viZHCUMng-27" value="Deinit GPS" style="rounded=1;whiteSpace=wrap;html=1;fillColor=#1ba1e2;fontColor=#ffffff;strokeColor=#006EAF;" parent="1" vertex="1">
          <mxGeometry x="2391" y="1302.7" width="128" height="54.12" as="geometry" />
        </mxCell>
        <mxCell id="RXZ0eFl1-a3viZHCUMng-40" style="edgeStyle=orthogonalEdgeStyle;rounded=0;orthogonalLoop=1;jettySize=auto;html=1;" parent="1" source="RXZ0eFl1-a3viZHCUMng-30" edge="1">
          <mxGeometry relative="1" as="geometry">
            <mxPoint x="2452" y="1215.829635281033" as="targetPoint" />
          </mxGeometry>
        </mxCell>
        <mxCell id="RXZ0eFl1-a3viZHCUMng-30" value="Get one point GPS data" style="rounded=1;whiteSpace=wrap;html=1;fillColor=#1ba1e2;fontColor=#ffffff;strokeColor=#006EAF;" parent="1" vertex="1">
          <mxGeometry x="2388" y="1137.7" width="128" height="54.12" as="geometry" />
        </mxCell>
        <mxCell id="RXZ0eFl1-a3viZHCUMng-41" style="edgeStyle=orthogonalEdgeStyle;rounded=0;orthogonalLoop=1;jettySize=auto;html=1;" parent="1" source="RXZ0eFl1-a3viZHCUMng-31" edge="1">
          <mxGeometry relative="1" as="geometry">
            <mxPoint x="2452" y="1301.7555555555555" as="targetPoint" />
          </mxGeometry>
        </mxCell>
        <mxCell id="RXZ0eFl1-a3viZHCUMng-31" value="Send data over SMS" style="rounded=1;whiteSpace=wrap;html=1;fillColor=#1ba1e2;fontColor=#ffffff;strokeColor=#006EAF;" parent="1" vertex="1">
          <mxGeometry x="2388" y="1216.7" width="128" height="54.12" as="geometry" />
        </mxCell>
        <mxCell id="RXZ0eFl1-a3viZHCUMng-34" value="TASK DELETE" style="rounded=1;whiteSpace=wrap;html=1;fillColor=#008a00;fontColor=#ffffff;strokeColor=#005700;" parent="1" vertex="1">
          <mxGeometry x="2558" y="1385.7" width="128" height="54.12" as="geometry" />
        </mxCell>
        <mxCell id="RXZ0eFl1-a3viZHCUMng-42" value="START TASK:&lt;br&gt;task_get_gps_data_one_time" style="whiteSpace=wrap;html=1;fillColor=#008a00;fontColor=#ffffff;strokeColor=#005700;" parent="1" vertex="1">
          <mxGeometry x="2530" y="727.7" width="178" height="60" as="geometry" />
        </mxCell>
        <mxCell id="RXZ0eFl1-a3viZHCUMng-45" style="edgeStyle=orthogonalEdgeStyle;rounded=0;orthogonalLoop=1;jettySize=auto;html=1;entryX=0.501;entryY=0.047;entryDx=0;entryDy=0;entryPerimeter=0;" parent="1" source="RXZ0eFl1-a3viZHCUMng-42" target="RXZ0eFl1-a3viZHCUMng-17" edge="1">
          <mxGeometry relative="1" as="geometry" />
        </mxCell>
        <mxCell id="RXZ0eFl1-a3viZHCUMng-46" style="edgeStyle=orthogonalEdgeStyle;rounded=0;orthogonalLoop=1;jettySize=auto;html=1;entryX=0.004;entryY=0.446;entryDx=0;entryDy=0;entryPerimeter=0;" parent="1" source="RXZ0eFl1-a3viZHCUMng-15" target="RXZ0eFl1-a3viZHCUMng-42" edge="1">
          <mxGeometry relative="1" as="geometry" />
        </mxCell>
        <mxCell id="RXZ0eFl1-a3viZHCUMng-47" value="START TASK:&lt;br&gt;task_log_data_into_file" style="whiteSpace=wrap;html=1;fillColor=#008a00;fontColor=#ffffff;strokeColor=#005700;" parent="1" vertex="1">
          <mxGeometry x="3169" y="445" width="178" height="60" as="geometry" />
        </mxCell>
        <mxCell id="RXZ0eFl1-a3viZHCUMng-55" style="edgeStyle=orthogonalEdgeStyle;rounded=0;orthogonalLoop=1;jettySize=auto;html=1;entryX=0;entryY=0.5;entryDx=0;entryDy=0;" parent="1" source="RXZ0eFl1-a3viZHCUMng-48" target="RXZ0eFl1-a3viZHCUMng-54" edge="1">
          <mxGeometry relative="1" as="geometry" />
        </mxCell>
        <mxCell id="RXZ0eFl1-a3viZHCUMng-58" style="edgeStyle=orthogonalEdgeStyle;rounded=0;orthogonalLoop=1;jettySize=auto;html=1;" parent="1" source="RXZ0eFl1-a3viZHCUMng-48" edge="1">
          <mxGeometry relative="1" as="geometry">
            <mxPoint x="1874.9999999999995" y="227.2222609747023" as="targetPoint" />
          </mxGeometry>
        </mxCell>
        <mxCell id="RXZ0eFl1-a3viZHCUMng-48" value="START TASK:&lt;br&gt;task_resurse_monitor" style="whiteSpace=wrap;html=1;fillColor=#008a00;fontColor=#ffffff;strokeColor=#005700;" parent="1" vertex="1">
          <mxGeometry x="1786" y="140" width="178" height="60" as="geometry" />
        </mxCell>
        <mxCell id="RXZ0eFl1-a3viZHCUMng-56" style="edgeStyle=orthogonalEdgeStyle;rounded=0;orthogonalLoop=1;jettySize=auto;html=1;" parent="1" source="RXZ0eFl1-a3viZHCUMng-49" edge="1">
          <mxGeometry relative="1" as="geometry">
            <mxPoint x="2047.2699381510415" y="260" as="targetPoint" />
          </mxGeometry>
        </mxCell>
        <mxCell id="RXZ0eFl1-a3viZHCUMng-59" style="edgeStyle=orthogonalEdgeStyle;rounded=0;orthogonalLoop=1;jettySize=auto;html=1;entryX=0.5;entryY=0;entryDx=0;entryDy=0;" parent="1" source="RXZ0eFl1-a3viZHCUMng-49" target="RXZ0eFl1-a3viZHCUMng-50" edge="1">
          <mxGeometry relative="1" as="geometry" />
        </mxCell>
        <mxCell id="RXZ0eFl1-a3viZHCUMng-49" value="START TASK:&lt;br&gt;task_bme280" style="whiteSpace=wrap;html=1;fillColor=#008a00;fontColor=#ffffff;strokeColor=#005700;" parent="1" vertex="1">
          <mxGeometry x="1786" y="230" width="178" height="60" as="geometry" />
        </mxCell>
        <mxCell id="RXZ0eFl1-a3viZHCUMng-50" value="START TASK:&lt;br&gt;task_gsm" style="whiteSpace=wrap;html=1;fillColor=#008a00;fontColor=#ffffff;strokeColor=#005700;" parent="1" vertex="1">
          <mxGeometry x="1786" y="329.82" width="178" height="60" as="geometry" />
        </mxCell>
        <mxCell id="RXZ0eFl1-a3viZHCUMng-51" value="Sleep (Max power saving)" style="rounded=1;whiteSpace=wrap;html=1;" parent="1" vertex="1">
          <mxGeometry x="1791" y="522" width="128" height="54.12" as="geometry" />
        </mxCell>
        <mxCell id="RXZ0eFl1-a3viZHCUMng-61" style="edgeStyle=orthogonalEdgeStyle;rounded=0;orthogonalLoop=1;jettySize=auto;html=1;" parent="1" source="RXZ0eFl1-a3viZHCUMng-52" edge="1">
          <mxGeometry relative="1" as="geometry">
            <mxPoint x="2310.762021019345" y="362.76" as="targetPoint" />
          </mxGeometry>
        </mxCell>
        <mxCell id="RXZ0eFl1-a3viZHCUMng-52" value="SMS commands handller" style="rounded=1;whiteSpace=wrap;html=1;fillColor=#1ba1e2;fontColor=#ffffff;strokeColor=#006EAF;" parent="1" vertex="1">
          <mxGeometry x="2050" y="335.70000000000005" width="128" height="54.12" as="geometry" />
        </mxCell>
        <mxCell id="RXZ0eFl1-a3viZHCUMng-53" value="Print on COMport" style="rounded=1;whiteSpace=wrap;html=1;fillColor=#1ba1e2;fontColor=#ffffff;strokeColor=#006EAF;" parent="1" vertex="1">
          <mxGeometry x="2050" y="232.94000000000005" width="128" height="54.12" as="geometry" />
        </mxCell>
        <mxCell id="RXZ0eFl1-a3viZHCUMng-54" value="Print on COMport" style="rounded=1;whiteSpace=wrap;html=1;fillColor=#1ba1e2;fontColor=#ffffff;strokeColor=#006EAF;" parent="1" vertex="1">
          <mxGeometry x="2053" y="142.94000000000005" width="128" height="54.12" as="geometry" />
        </mxCell>
        <mxCell id="RXZ0eFl1-a3viZHCUMng-60" style="edgeStyle=orthogonalEdgeStyle;rounded=0;orthogonalLoop=1;jettySize=auto;html=1;entryX=-0.016;entryY=0.436;entryDx=0;entryDy=0;entryPerimeter=0;" parent="1" source="RXZ0eFl1-a3viZHCUMng-50" target="RXZ0eFl1-a3viZHCUMng-52" edge="1">
          <mxGeometry relative="1" as="geometry" />
        </mxCell>
        <mxCell id="RXZ0eFl1-a3viZHCUMng-65" style="edgeStyle=orthogonalEdgeStyle;rounded=0;orthogonalLoop=1;jettySize=auto;html=1;entryX=0.477;entryY=-0.019;entryDx=0;entryDy=0;entryPerimeter=0;" parent="1" source="RXZ0eFl1-a3viZHCUMng-47" target="AnVQf3OLI9KUwn47Dejs-11" edge="1">
          <mxGeometry relative="1" as="geometry" />
        </mxCell>
      </root>
    </mxGraphModel>
  </diagram>
</mxfile>
